<svg xmlns="http://www.w3.org/2000/svg" shape-rendering="geometricPrecision" text-rendering="geometricPrecision" image-rendering="optimizeQuality" fill-rule="evenodd" clip-rule="evenodd" viewBox="0 0 479 511.697"><path d="M231.154 99.463L13.525 317.092c-18.033 18.032-18.033 47.777 0 65.81l115.326 115.275c18.038 18.015 47.72 18.038 65.758 0l217.658-217.726a14.367 14.367 0 004.217-9.689c2.086-54.828 6.344-113.439 6.344-167.862-.28-7.957-6.965-14.186-14.921-13.907L241.954 95.24a14.418 14.418 0 00-10.8 4.223zm63.593 72.113c12.532-12.527 32.845-12.527 45.378 0 12.527 12.533 12.527 32.846 0 45.373-12.533 12.533-32.846 12.533-45.378 0-12.528-12.527-12.528-32.84 0-45.373z"/><path fill="#F63D52" d="M23.755 327.322l217.629-217.629 167.03-6.286-6.343 166.848-217.692 217.691c-12.47 12.47-32.879 12.47-45.355 0L23.755 372.672c-12.47-12.47-12.47-32.88 0-45.35zm270.992-155.746c12.532-12.527 32.845-12.527 45.378 0 12.527 12.533 12.527 32.846 0 45.373-12.533 12.533-32.846 12.533-45.378 0-12.528-12.527-12.528-32.84 0-45.373z"/><path fill="#DD374A" d="M402.676 254.297l-.606 15.956-217.691 217.691c-6.733 6.733-15.779 9.829-24.642 9.292l242.939-242.939z"/><path fill="#F75063" d="M23.756 327.321l217.628-217.628 15.548-.585-242.49 242.49c-.43-8.745 2.673-17.636 9.314-24.277z"/><path d="M284.568 161.341a46.9 46.9 0 017.489-6.087c8.964-82.72 43.497-128.258 80.024-146.126 22.905-11.204 46.717-11.672 66.004-3.71 19.697 8.139 34.674 24.952 39.388 48.046 6.605 32.383-7.381 77.3-58.453 127.077l-11.74-12.071c46.29-45.115 59.284-84.247 53.699-111.644-3.522-17.252-14.659-29.796-29.289-35.837-15.046-6.212-33.871-5.734-52.223 3.243-30.799 15.069-60.088 53.699-69.623 124.097a46.469 46.469 0 017.591-.621c11.912 0 23.841 4.548 32.926 13.633l.866.946a46.362 46.362 0 0112.772 31.979c0 11.917-4.554 23.834-13.638 32.919l-.964.878a46.371 46.371 0 01-31.962 12.76c-11.917 0-23.834-4.548-32.924-13.638-9.085-9.085-13.633-21.002-13.633-32.919 0-11.878 4.542-23.772 13.69-32.925zm10.179 10.235c12.532-12.527 32.845-12.527 45.378 0 12.527 12.533 12.527 32.846 0 45.373-12.533 12.533-32.846 12.533-45.378 0-12.528-12.527-12.528-32.84 0-45.373z"/></svg>