<svg width="82" height="83" viewBox="0 0 82 83" fill="none" xmlns="http://www.w3.org/2000/svg">
<g filter="url(#filter0_i_409_2272)">
<path d="M80 12L80.5 -0.494419C80.0526 -3.01724 79.4296 -3.53496 77.5 -2.49442L66 12H80Z" fill="#0AAE1B"/>
</g>
<path d="M77.7542 -3H9.5C3.62025 -2.38737 0.882054 -0.835042 -1.03946 3.75306C-1.78493 5.53305 -2 7.48013 -2 9.40993V81.5C-1.88519 82.6541 -2.00507 82.5904 -1.08466 82.9654C-1.0289 82.9882 -0.969026 83 -0.90881 83C-0.398419 83 -0.0150273 81.8914 0.258072 81.4602C0.418238 81.2074 0.671515 80.8984 1 80.5L77.8559 -0.348397C77.9509 -0.448342 78.1248 -0.551553 78.2537 -0.600552C79.2133 -0.965327 80.293 -2.0505 79.349 -2.45408C79.0467 -2.58336 78.7123 -2.71638 78.3457 -2.8622L78.2283 -2.90892C78.0775 -2.96897 77.9166 -3 77.7542 -3Z" fill="url(#paint0_linear_409_2272)"/>
<g filter="url(#filter1_i_409_2272)">
<path d="M14.9527 83L15 66L-0.547343 81C-1.38008 82.6334 -1.07353 83.0192 0.452657 83H14.9527Z" fill="#0AAE1B"/>
</g>
<path d="M13.861 45.1555L14.9177 46.176L13.238 47.9154L18.7086 53.1982L17.4443 54.5074L11.9737 49.2246L10.2941 50.9639L9.23735 49.9435L13.861 45.1555ZM24.6267 44.5808L22.1162 47.1805L22.9446 48.8118L21.6171 50.1864L17.3471 41.5268L18.8191 40.0026L27.6224 43.9677L26.2859 45.3517L24.6267 44.5808ZM23.2362 43.9248L19.5935 42.2323L21.4121 45.8137L23.2362 43.9248ZM28.9897 33.4193C28.5709 33.3041 28.1634 33.3081 27.7671 33.4315C27.3709 33.5548 27.0042 33.7911 26.667 34.1402C26.2938 34.5267 26.0499 34.9539 25.9355 35.4217C25.8211 35.8895 25.8447 36.3641 26.0063 36.8455C26.168 37.3269 26.4608 37.7723 26.8847 38.1817C27.3211 38.6031 27.7826 38.8862 28.2694 39.0309C28.7621 39.1694 29.2433 39.1702 29.7128 39.0333C30.1824 38.8964 30.6128 38.6253 31.0042 38.2201C31.4858 37.7214 31.7492 37.1866 31.7944 36.6158C31.8334 36.039 31.6641 35.4719 31.2866 34.9146L29.1193 37.1589L28.1187 36.1927L31.5323 32.6578L32.6731 33.7596C33.044 34.2863 33.2842 34.8797 33.3937 35.5398C33.5033 36.1998 33.4568 36.8718 33.2542 37.5556C33.0514 38.2273 32.6791 38.8436 32.1373 39.4047C31.5292 40.0344 30.8381 40.4693 30.0639 40.7096C29.2895 40.9377 28.5083 40.9544 27.7203 40.7597C26.9384 40.5589 26.2264 40.1484 25.5843 39.5283C24.9422 38.9082 24.5071 38.2109 24.279 37.4365C24.0508 36.6498 24.0402 35.8685 24.2473 35.0926C24.4542 34.3045 24.8587 33.5987 25.4607 32.9753C26.1711 32.2396 26.969 31.7752 27.8544 31.582C28.7335 31.3828 29.5966 31.4934 30.4436 31.9137L28.9897 33.4193ZM36.616 25.522C36.1972 25.4068 35.7897 25.4108 35.3934 25.5342C34.9972 25.6576 34.6305 25.8938 34.2934 26.2429C33.9201 26.6294 33.6763 27.0566 33.5618 27.5244C33.4474 27.9923 33.471 28.4669 33.6327 28.9482C33.7943 29.4296 34.0871 29.875 34.511 30.2844C34.9474 30.7058 35.409 30.9889 35.8957 31.1336C36.3885 31.2721 36.8696 31.2729 37.3392 31.136C37.8087 30.9991 38.2392 30.728 38.6305 30.3228C39.1121 29.8241 39.3755 29.2893 39.4207 28.7185C39.4597 28.1417 39.2904 27.5746 38.913 27.0173L36.7456 29.2617L35.745 28.2954L39.1586 24.7605L40.2995 25.8623C40.6703 26.389 40.9105 26.9824 41.0201 27.6425C41.1296 28.3025 41.0831 28.9745 40.8806 29.6584C40.6778 30.33 40.3054 30.9463 39.7636 31.5074C39.1556 32.1371 38.4644 32.5721 37.6902 32.8124C36.9158 33.0404 36.1346 33.0571 35.3467 32.8625C34.5648 32.6616 33.8527 32.2511 33.2106 31.631C32.5685 31.0109 32.1334 30.3136 31.9053 29.5392C31.6771 28.7525 31.6665 27.9712 31.8736 27.1953C32.0805 26.4072 32.485 25.7014 33.087 25.078C33.7974 24.3423 34.5953 23.8779 35.4807 23.6847C36.3598 23.4855 37.2229 23.5961 38.0699 24.0165L36.616 25.522ZM40.2107 19.9844L41.8472 21.5647L43.9693 19.3671L45.0073 20.3695L42.8852 22.5671L44.6152 24.2378L47.0083 21.7597L48.0743 22.7891L44.417 26.5765L37.8803 20.2641L41.5377 16.4768L42.6038 17.5063L40.2107 19.9844ZM45.5941 12.295C46.2563 11.6092 46.9713 11.137 47.7391 10.8785C48.5129 10.6137 49.2846 10.5818 50.0543 10.7829C50.8237 10.9717 51.5357 11.3822 52.1903 12.0143C52.8449 12.6465 53.28 13.3437 53.4956 14.1061C53.7109 14.8563 53.6998 15.6226 53.4622 16.4052C53.2305 17.1815 52.7836 17.9125 52.1214 18.5983L49.9179 20.88L43.3906 14.5767L45.5941 12.295ZM50.9634 17.5704C51.6256 16.8847 51.9503 16.1741 51.9375 15.4388C51.9247 14.7036 51.5785 14.0078 50.899 13.3516C50.2194 12.6954 49.5089 12.3707 48.7674 12.3775C48.0196 12.3783 47.3146 12.7216 46.6524 13.4073L45.7584 14.3331L50.0694 18.4962L50.9634 17.5704Z" fill="white"/>
<defs>
<filter id="filter0_i_409_2272" x="66" y="-3" width="14.5" height="19" filterUnits="userSpaceOnUse" color-interpolation-filters="sRGB">
<feFlood flood-opacity="0" result="BackgroundImageFix"/>
<feBlend mode="normal" in="SourceGraphic" in2="BackgroundImageFix" result="shape"/>
<feColorMatrix in="SourceAlpha" type="matrix" values="0 0 0 0 0 0 0 0 0 0 0 0 0 0 0 0 0 0 127 0" result="hardAlpha"/>
<feOffset dy="4"/>
<feGaussianBlur stdDeviation="2"/>
<feComposite in2="hardAlpha" operator="arithmetic" k2="-1" k3="1"/>
<feColorMatrix type="matrix" values="0 0 0 0 0 0 0 0 0 0 0 0 0 0 0 0 0 0 0.25 0"/>
<feBlend mode="normal" in2="shape" result="effect1_innerShadow_409_2272"/>
</filter>
<filter id="filter1_i_409_2272" x="-1" y="66" width="16" height="21.0007" filterUnits="userSpaceOnUse" color-interpolation-filters="sRGB">
<feFlood flood-opacity="0" result="BackgroundImageFix"/>
<feBlend mode="normal" in="SourceGraphic" in2="BackgroundImageFix" result="shape"/>
<feColorMatrix in="SourceAlpha" type="matrix" values="0 0 0 0 0 0 0 0 0 0 0 0 0 0 0 0 0 0 127 0" result="hardAlpha"/>
<feOffset dy="4"/>
<feGaussianBlur stdDeviation="2"/>
<feComposite in2="hardAlpha" operator="arithmetic" k2="-1" k3="1"/>
<feColorMatrix type="matrix" values="0 0 0 0 0 0 0 0 0 0 0 0 0 0 0 0 0 0 0.25 0"/>
<feBlend mode="normal" in2="shape" result="effect1_innerShadow_409_2272"/>
</filter>
<linearGradient id="paint0_linear_409_2272" x1="3" y1="-3" x2="31" y2="46" gradientUnits="userSpaceOnUse">
<stop stop-color="#1CE130"/>
<stop offset="0.994347" stop-color="#1CE130"/>
</linearGradient>
</defs>
</svg>
