<svg width="84" height="84" viewBox="0 0 84 84" fill="none" xmlns="http://www.w3.org/2000/svg">
<g filter="url(#filter0_i_422_2239)">
<path d="M82 13L82.5 0.505581C82.0526 -2.01724 81.4296 -2.53496 79.5 -1.49442L68 13H82Z" fill="#990A1B"/>
</g>
<path d="M79.7542 -2H11.5C5.62025 -1.38737 2.88205 0.164958 0.960539 4.75306C0.21507 6.53305 0 8.48013 0 10.4099V82.5C0.114806 83.6541 -0.00507335 83.5904 0.915337 83.9654C0.971102 83.9882 1.03097 84 1.09119 84C1.60158 84 1.98497 82.8914 2.25807 82.4602C2.41824 82.2074 2.67151 81.8984 3 81.5L79.8559 0.651603C79.9509 0.551658 80.1248 0.448447 80.2537 0.399448C81.2133 0.0346732 82.293 -1.0505 81.349 -1.45408C81.0467 -1.58336 80.7123 -1.71638 80.3457 -1.8622L80.2283 -1.90892C80.0775 -1.96897 79.9166 -2 79.7542 -2Z" fill="url(#paint0_linear_422_2239)"/>
<g filter="url(#filter1_i_422_2239)">
<path d="M16.9527 84L17 67L1.45266 82C0.619915 83.6334 0.92647 84.0192 2.45266 84H16.9527Z" fill="#A10B1C"/>
</g>
<path d="M5.09656 56.5884L9.13638 60.4896C9.57901 60.9171 10.0302 61.1298 10.4898 61.128C10.9432 61.12 11.3716 60.9072 11.775 60.4895C12.1844 60.0656 12.3851 59.6269 12.3772 59.1735C12.363 58.7141 12.1347 58.2706 11.692 57.8432L7.65221 53.942L8.92552 52.6234L12.956 56.5156C13.5108 57.0514 13.8641 57.6275 14.0159 58.2439C14.1674 58.8481 14.1441 59.4461 13.946 60.0379C13.754 60.6235 13.4202 61.1626 12.9446 61.6551C12.475 62.1414 11.9509 62.4907 11.3723 62.7031C10.7998 62.9092 10.212 62.944 9.60894 62.8074C8.99966 62.6648 8.4176 62.3256 7.86275 61.7898L3.83228 57.8976L5.09656 56.5884ZM22.7602 51.3597L21.496 52.6689L14.1539 51.3076L18.6333 55.6333L17.369 56.9425L10.8324 50.6301L12.0966 49.3209L19.448 50.6912L14.9593 46.3565L16.2236 45.0473L22.7602 51.3597ZM22.4665 38.6013L23.5232 39.6218L21.8435 41.3611L27.3141 46.644L26.0498 47.9532L20.5793 42.6703L18.8996 44.4097L17.8429 43.3892L22.4665 38.6013ZM33.2323 38.0266L30.7218 40.6263L31.5501 42.2575L30.2226 43.6322L25.9526 34.9726L27.4246 33.4483L36.2279 37.4135L34.8914 38.7975L33.2323 38.0266ZM31.8417 37.3705L28.199 35.6781L30.0176 39.2595L31.8417 37.3705ZM37.5952 26.8651C37.1764 26.7498 36.7689 26.7539 36.3726 26.8772C35.9764 27.0006 35.6097 27.2369 35.2726 27.586C34.8993 27.9725 34.6555 28.3997 34.541 28.8675C34.4266 29.3353 34.4502 29.8099 34.6119 30.2913C34.7735 30.7727 35.0663 31.2181 35.4902 31.6274C35.9266 32.0489 36.3882 32.332 36.8749 32.4767C37.3676 32.6152 37.8488 32.616 38.3184 32.4791C38.7879 32.3422 39.2184 32.0711 39.6097 31.6659C40.0913 31.1671 40.3547 30.6323 40.3999 30.0615C40.4389 29.4847 40.2696 28.9177 39.8922 28.3604L37.7248 30.6047L36.7242 29.6384L40.1378 26.1036L41.2786 27.2053C41.6495 27.7321 41.8897 28.3255 41.9993 28.9855C42.1088 29.6456 42.0623 30.3175 41.8598 31.0014C41.657 31.673 41.2846 32.2894 40.7428 32.8505C40.1348 33.4801 39.4436 33.9151 38.6694 34.1554C37.895 34.3834 37.1138 34.4001 36.3259 34.2055C35.544 34.0046 34.8319 33.5941 34.1898 32.974C33.5477 32.3539 33.1126 31.6567 32.8845 30.8823C32.6563 30.0956 32.6457 29.3143 32.8528 28.5384C33.0597 27.7502 33.4642 27.0445 34.0662 26.421C34.7766 25.6854 35.5745 25.221 36.4599 25.0278C37.339 24.8285 38.2021 24.9391 39.0491 25.3595L37.5952 26.8651ZM45.2215 18.9678C44.8027 18.8525 44.3952 18.8566 43.999 18.98C43.6027 19.1033 43.236 19.3396 42.8989 19.6887C42.5256 20.0752 42.2818 20.5024 42.1674 20.9702C42.0529 21.438 42.0765 21.9126 42.2382 22.394C42.3998 22.8754 42.6926 23.3208 43.1165 23.7302C43.5529 24.1516 44.0145 24.4347 44.5012 24.5794C44.994 24.7179 45.4751 24.7187 45.9447 24.5818C46.4142 24.4449 46.8447 24.1738 47.236 23.7686C47.7176 23.2698 47.981 22.7351 48.0262 22.1643C48.0652 21.5874 47.896 21.0204 47.5185 20.4631L45.3511 22.7074L44.3505 21.7412L47.7641 18.2063L48.905 19.308C49.2758 19.8348 49.516 20.4282 49.6256 21.0883C49.7352 21.7483 49.6887 22.4203 49.4861 23.1041C49.2833 23.7757 48.911 24.3921 48.3691 24.9532C47.7611 25.5829 47.0699 26.0178 46.2957 26.2581C45.5213 26.4862 44.7401 26.5029 43.9522 26.3082C43.1703 26.1073 42.4582 25.6969 41.8161 25.0768C41.174 24.4567 40.7389 23.7594 40.5109 22.985C40.2826 22.1983 40.272 21.417 40.4791 20.6411C40.686 19.853 41.0905 19.1472 41.6925 18.5238C42.4029 17.7881 43.2008 17.3237 44.0862 17.1305C44.9653 16.9313 45.8284 17.0418 46.6754 17.4622L45.2215 18.9678ZM48.8162 13.4302L50.4527 15.0105L52.5748 12.8129L53.6129 13.8153L51.4907 16.0129L53.2207 17.6835L55.6138 15.2054L56.6798 16.2349L53.0225 20.0222L46.4858 13.7099L50.1432 9.92254L51.2093 10.952L48.8162 13.4302ZM54.1996 5.74074C54.8618 5.05497 55.5768 4.5828 56.3446 4.32423C57.1184 4.05943 57.8901 4.02757 58.6598 4.22866C59.4292 4.41749 60.1412 4.82798 60.7958 5.46011C61.4504 6.09225 61.8855 6.78952 62.1011 7.5519C62.3165 8.30203 62.3053 9.06838 62.0677 9.85093C61.8361 10.6273 61.3891 11.3583 60.7269 12.0441L58.5234 14.3258L51.9961 8.02249L54.1996 5.74074ZM59.5689 11.0162C60.2312 10.3304 60.5559 9.6199 60.543 8.88462C60.5302 8.14934 60.184 7.45359 59.5045 6.79737C58.8249 6.14115 58.1144 5.81644 57.3729 5.82326C56.6251 5.82405 55.9202 6.16733 55.2579 6.8531L54.3639 7.77889L58.6749 11.942L59.5689 11.0162Z" fill="white"/>
<defs>
<filter id="filter0_i_422_2239" x="68" y="-2" width="14.5" height="19" filterUnits="userSpaceOnUse" color-interpolation-filters="sRGB">
<feFlood flood-opacity="0" result="BackgroundImageFix"/>
<feBlend mode="normal" in="SourceGraphic" in2="BackgroundImageFix" result="shape"/>
<feColorMatrix in="SourceAlpha" type="matrix" values="0 0 0 0 0 0 0 0 0 0 0 0 0 0 0 0 0 0 127 0" result="hardAlpha"/>
<feOffset dy="4"/>
<feGaussianBlur stdDeviation="2"/>
<feComposite in2="hardAlpha" operator="arithmetic" k2="-1" k3="1"/>
<feColorMatrix type="matrix" values="0 0 0 0 0 0 0 0 0 0 0 0 0 0 0 0 0 0 0.25 0"/>
<feBlend mode="normal" in2="shape" result="effect1_innerShadow_422_2239"/>
</filter>
<filter id="filter1_i_422_2239" x="1" y="67" width="16" height="21.0007" filterUnits="userSpaceOnUse" color-interpolation-filters="sRGB">
<feFlood flood-opacity="0" result="BackgroundImageFix"/>
<feBlend mode="normal" in="SourceGraphic" in2="BackgroundImageFix" result="shape"/>
<feColorMatrix in="SourceAlpha" type="matrix" values="0 0 0 0 0 0 0 0 0 0 0 0 0 0 0 0 0 0 127 0" result="hardAlpha"/>
<feOffset dy="4"/>
<feGaussianBlur stdDeviation="2"/>
<feComposite in2="hardAlpha" operator="arithmetic" k2="-1" k3="1"/>
<feColorMatrix type="matrix" values="0 0 0 0 0 0 0 0 0 0 0 0 0 0 0 0 0 0 0.25 0"/>
<feBlend mode="normal" in2="shape" result="effect1_innerShadow_422_2239"/>
</filter>
<linearGradient id="paint0_linear_422_2239" x1="5" y1="-2" x2="33" y2="47" gradientUnits="userSpaceOnUse">
<stop stop-color="#DA132B"/>
<stop offset="0.994347" stop-color="#F41938"/>
</linearGradient>
</defs>
</svg>
